<svg width="1440" height="408" viewBox="0 0 1440 408" fill="none" xmlns="http://www.w3.org/2000/svg">
<mask id="path-1-inside-1_3_69" fill="white">
<path d="M1510.95 407.999H1510.36C1486.71 394.309 1463.52 380.297 1440.41 366.331C1364.14 320.238 1288.71 274.649 1200.37 242.914C996.674 169.744 724.214 170.258 214.323 407.999H213.677C724.021 170.001 996.742 169.501 1200.66 242.754C1289.05 274.506 1364.5 320.104 1440.79 366.21C1463.97 380.217 1487.22 394.272 1510.94 407.999M1531.03 407.999H1530.42C1500.25 391.991 1470.68 375.37 1441.15 358.769C1359.18 312.689 1277.48 266.759 1183.83 234.511C964.192 158.883 678.7 158.548 169.658 407.999H169.026C678.493 158.293 964.246 158.641 1184.11 234.349C1277.81 266.613 1359.53 312.553 1441.52 358.641C1471.13 375.287 1500.77 391.953 1531.03 408L1531.03 407.999ZM1554.69 407.999H1554.06C1516.9 389.876 1480.43 370.716 1443.88 351.512C1355.74 305.2 1267.11 258.638 1167.27 225.787C931.003 148.046 631.77 147.136 127.052 407.999H126.43C631.549 146.88 931.044 147.801 1167.55 225.621C1267.44 258.486 1356.08 305.057 1444.24 351.379C1480.88 370.629 1517.44 389.837 1554.69 407.999ZM1581.95 407.999L1581.29 407.999C1536.84 388.008 1493 366.39 1448.85 344.616C1353.87 297.77 1257.43 250.209 1150.28 216.638C896.795 137.22 583.198 136.152 86.5661 407.999H85.9648C582.964 135.899 896.826 136.976 1150.55 216.47C1257.74 250.053 1354.19 297.623 1449.2 344.478C1493.44 366.301 1537.38 387.969 1581.94 407.999H1581.95ZM1600.09 402.669V402.957C1552.24 382.73 1504.59 360.579 1456.34 338.146C1353.64 290.405 1248.21 241.39 1132.34 206.959C861.222 126.405 532.812 125.745 48.2952 407.999H47.7074C532.564 125.492 861.242 126.161 1132.6 206.789C1248.52 241.233 1353.97 290.256 1456.68 338.005C1504.82 360.385 1552.36 382.484 1600.09 402.671V402.669ZM1600.09 389.258V389.54C1556.11 371.522 1511.77 352.017 1466.7 332.186C1355.22 283.138 1239.23 232.101 1112.83 196.649C823.872 115.601 480.483 116.073 12.331 407.997H11.7569C480.222 115.823 823.882 115.357 1113.09 196.475C1239.52 231.938 1355.54 282.984 1467.03 332.04C1511.99 351.821 1556.21 371.278 1600.09 389.259V389.258ZM1600.09 375.811V376.09C1560.88 360.503 1521.02 343.84 1480.38 326.846C1358.82 276.023 1230.22 222.262 1091.09 185.621C784.303 104.826 426.16 107.298 -21.2176 407.997H-21.7782C425.878 107.053 784.296 104.584 1091.33 185.444C1230.51 222.098 1359.12 275.866 1480.7 326.697C1521.24 343.643 1560.99 360.262 1600.09 375.811H1600.09ZM1600.09 362.332V362.607C1566.76 349.733 1532.7 336.149 1497.93 322.276C1364.79 269.166 1221.01 211.812 1066.37 173.813C742.037 94.1192 369.876 99.5851 -52.2489 407.999H-52.7958C369.581 99.3413 742.013 93.8755 1066.6 173.635C1221.28 211.644 1365.08 269.006 1498.24 322.124C1532.91 335.953 1566.85 349.495 1600.09 362.332ZM1600.09 348.823V349.095C1573.99 339.289 1547.3 329.088 1520.06 318.675C1373.74 262.739 1211.44 200.695 1037.9 161.205C696.628 83.5447 311.833 93.1457 -80.5554 407.999H-81.0922C311.517 92.905 696.587 83.3025 1038.12 161.021C1211.7 200.522 1374.02 262.574 1520.37 318.52C1547.5 328.893 1574.08 339.054 1600.09 348.825L1600.09 348.823ZM1600.09 335.286V335.554C1582.94 329.284 1565.49 322.86 1547.75 316.328C1386.67 257.026 1201.55 188.872 1004.92 147.809C650.115 73.7124 257.778 87.863 -98.5782 401.363V400.898C257.829 87.6099 650.231 73.5074 1005.12 147.622C1201.8 188.699 1386.95 256.862 1548.05 316.171C1565.69 322.665 1583.04 329.051 1600.09 335.287V335.286ZM1600.09 321.724V321.991C1594.22 319.899 1588.31 317.79 1582.35 315.668C1405.3 252.528 1191.67 176.343 966.689 133.7C606.232 65.3785 216.592 83.2124 -98.5782 378.731V378.245C216.667 82.964 606.351 65.1751 966.876 133.509C1191.92 176.163 1405.58 252.357 1582.65 315.506C1588.5 317.593 1594.32 319.666 1600.09 321.724ZM1600.09 308.138V308.402C1410.68 242.568 1171.25 161.186 922.537 118.998C559.797 57.4639 177.299 79.3491 -98.5782 354.446V353.939C177.404 79.1037 559.923 57.2636 922.707 118.804C1171.36 160.984 1410.7 242.314 1600.09 308.138ZM1600.09 294.529V294.792C1400.31 227.012 1138.69 143.658 871.917 103.885C511.076 50.0882 140.818 76.082 -98.5782 328.217V327.683C140.957 75.832 511.215 49.8894 872.063 103.688C1138.78 143.452 1400.32 226.759 1600.09 294.529ZM1600.09 280.904V281.163C1368.84 204.52 1046.94 109.163 734.604 79.7046C408.341 48.9344 92.5386 90.1192 -98.5782 299.677V299.126C92.6881 89.8568 408.463 48.7341 734.699 79.5028C1046.99 108.956 1368.82 204.264 1600.09 280.904ZM1600.09 267.258V267.515C1364.41 191.157 1027.01 97.4655 705.543 69.113C380.717 40.4624 72.192 78.5525 -98.5782 268.692V268.138C72.3754 78.2932 380.86 40.2636 705.638 68.9096C1027.06 97.259 1364.39 190.904 1600.09 267.258ZM1600.09 253.593V253.849C1360.62 177.95 1008.77 86.2015 678.853 58.7155C550.227 47.9996 424.94 47.0524 310.96 60.6239C196.99 74.1938 94.3222 102.282 10.9177 149.636C-30.7098 173.27 -67.5368 201.706 -98.5782 235.529V234.98C-67.6116 201.346 -30.9136 173.048 10.544 149.511C94.0164 102.119 196.772 74.0074 310.834 60.4251C424.886 46.8459 550.244 47.7916 678.938 58.5136C1008.81 85.995 1360.58 177.702 1600.09 253.595V253.593ZM1600.09 239.911V240.164C1344.71 160.935 953.626 65.8692 601.601 44.7869C480.857 37.5555 364.709 39.0291 260.217 52.8335C155.739 66.6363 62.9105 92.7683 -11.2159 134.852C-44.2617 153.616 -73.5909 175.553 -98.5782 200.978V200.455C-73.669 175.199 -44.4656 153.394 -11.5862 134.726C62.6013 92.6053 155.512 66.4515 260.085 52.6363C364.641 38.8242 480.853 37.349 601.663 44.5835C953.65 65.6643 1344.66 160.686 1600.09 239.913V239.911ZM1600.09 226.213V226.464C1414.5 170.071 1153.33 106.41 887.701 67.3553C689.219 38.1735 488.256 22.731 314.496 34.3288C140.77 45.9251 -5.76656 84.5525 -95.4391 163.508C-96.4957 164.438 -97.5387 165.374 -98.5782 166.313V165.841C-97.678 165.029 -96.7709 164.219 -95.857 163.414C-6.10631 84.3894 140.553 45.7295 314.425 34.1254C488.263 22.5229 689.3 37.9701 887.847 67.1612C1153.4 106.203 1414.49 169.832 1600.09 226.214V226.213ZM1600.09 212.503V212.751C1401.71 153.678 1112.74 87.481 824.493 50.1751C628.24 24.776 432.329 12.7713 265.605 25.5291C111.849 37.2978 -17.0865 70.1286 -98.5782 132.944V132.528C-16.988 69.8568 111.89 37.0835 265.527 25.3273C432.329 12.5633 628.308 24.5711 824.626 49.9779C1112.79 87.273 1401.69 153.441 1600.09 212.503ZM1600.09 198.778V199.026C1388.54 137.256 1069.4 68.6565 758.279 33.6456C565.25 11.9235 375.322 3.13314 216.123 16.9282C85.4042 28.2574 -24.5878 54.818 -98.5782 101.95V101.585C-24.5198 54.5587 85.4212 28.0447 216.035 16.7263C375.309 2.92506 565.308 11.7186 758.398 33.4468C1069.44 68.4484 1388.5 137.018 1600.09 198.779V198.778ZM1600.09 185.042V185.289C1375.22 120.875 1023.9 50.1052 690.234 17.9111C501.271 -0.321834 317.982 -6.18209 166.563 8.49028C58.9458 18.9204 -32.5647 39.7279 -98.5782 73.8382V73.5183C-32.5239 39.481 58.939 18.7077 166.465 8.28842C317.951 -6.39327 501.309 -0.531464 690.333 17.7077C1023.92 49.8956 1375.16 120.635 1600.09 185.042ZM260.299 407.997C768.339 181.89 1028.76 180.386 1217.52 250.93C1301.28 282.236 1370.93 327.719 1441.85 374.04C1459.21 385.374 1476.64 396.758 1494.37 407.997H1493.8C1476.13 396.795 1458.75 385.45 1441.46 374.155C1370.55 327.845 1300.93 282.373 1217.21 251.087C1028.68 180.627 768.522 182.144 260.958 407.997H260.299Z"/>
</mask>
<path d="M1510.36 407.999L1471.28 475.491L1489.41 485.986H1510.36L1510.36 407.999ZM1440.41 366.331L1480.75 299.586L1480.75 299.585L1440.41 366.331ZM1200.37 242.914L1174 316.31L1174 316.31L1200.37 242.914ZM214.323 407.999V485.986H231.61L247.279 478.681L214.323 407.999ZM213.677 407.999L180.716 337.319L213.677 485.986V407.999ZM1200.66 242.754L1227.03 169.359L1227.03 169.359L1200.66 242.754ZM1440.79 366.21L1481.13 299.465L1481.13 299.465L1440.79 366.21ZM1531.03 407.999L1562.16 479.505L1531.03 330.011V407.999ZM1530.42 407.999L1493.87 476.89L1511.01 485.986H1530.42L1530.42 407.999ZM1441.15 358.769L1402.93 426.75L1402.94 426.752L1441.15 358.769ZM1183.83 234.511L1209.22 160.772L1209.22 160.772L1183.83 234.511ZM169.658 407.999V485.986H187.739L203.976 478.03L169.658 407.999ZM169.026 407.999L134.703 337.97L169.026 485.986V407.999ZM1184.11 234.349L1158.72 308.088L1158.72 308.088L1184.11 234.349ZM1441.52 358.641L1403.3 426.623L1403.3 426.624L1441.52 358.641ZM1531.03 408L1494.49 476.898L1527.69 494.508L1562.16 479.507L1531.03 408ZM1554.69 407.999L1554.69 485.986L1588.87 337.899L1554.69 407.999ZM1554.06 407.999L1519.87 478.092L1536.05 485.986H1554.06L1554.06 407.999ZM1443.88 351.512L1480.16 282.474L1480.16 282.474L1443.88 351.512ZM1167.27 225.787L1191.65 151.707V151.706L1167.27 225.787ZM127.052 407.999L127.052 485.986H146.014L162.86 477.28L127.052 407.999ZM126.43 407.999L90.6173 338.72L126.43 485.986L126.43 407.999ZM1167.55 225.621L1143.18 299.701L1143.18 299.702L1167.55 225.621ZM1444.24 351.379L1407.97 420.418V420.418L1444.24 351.379ZM1581.29 407.999L1549.3 479.125L1564.56 485.986H1581.29L1581.29 407.999ZM1448.85 344.616L1483.35 274.674L1483.35 274.673L1448.85 344.616ZM1150.28 216.638L1173.6 142.217L1173.6 142.217L1150.28 216.638ZM86.5661 407.999L86.5661 485.986H106.514L124.012 476.408L86.5661 407.999ZM85.9648 407.999L48.5132 339.592L85.9648 485.986L85.9648 407.999ZM1150.55 216.47L1127.24 290.891L1127.24 290.891L1150.55 216.47ZM1449.2 344.478L1483.69 274.535L1483.69 274.534L1449.2 344.478ZM1581.94 407.999L1549.97 479.13L1565.22 485.986L1581.94 485.986L1581.94 407.999ZM1600.09 402.957L1569.72 474.789L1678.07 520.597L1678.07 402.957H1600.09ZM1456.34 338.146L1489.22 267.427L1489.22 267.427L1456.34 338.146ZM1132.34 206.959L1154.55 132.202L1154.55 132.202L1132.34 206.959ZM48.2952 407.999L48.2952 485.986H69.3545L87.5513 475.386L48.2952 407.999ZM47.7074 407.999L8.44557 340.615L-241.051 485.986H47.7074L47.7074 407.999ZM1132.6 206.789L1154.81 132.031L1154.81 132.031L1132.6 206.789ZM1456.68 338.005L1489.56 267.286L1489.56 267.286L1456.68 338.005ZM1600.09 402.671L1569.71 474.499L1678.07 520.331L1678.07 402.671H1600.09ZM1600.09 389.54L1570.52 461.707L1678.07 505.769L1678.07 389.54H1600.09ZM1466.7 332.186L1435.29 403.57L1435.29 403.57L1466.7 332.186ZM1112.83 196.649L1133.89 121.559L1133.89 121.559L1112.83 196.649ZM12.331 407.997L12.331 485.985H34.6541L53.5962 474.173L12.331 407.997ZM11.7569 407.997L-29.5139 341.824L-260.657 485.985H11.7569L11.7569 407.997ZM1113.09 196.475L1092.02 271.565L1092.03 271.565L1113.09 196.475ZM1467.03 332.04L1498.44 260.657L1498.44 260.656L1467.03 332.04ZM1600.09 389.259L1570.51 461.421L1678.07 505.506L1678.07 389.259H1600.09ZM1600.09 375.811V297.823L1522.1 297.823V375.811L1600.09 375.811ZM1600.09 376.09L1571.27 448.56L1678.07 491.021L1678.07 376.09H1600.09ZM1480.38 326.846L1510.46 254.895L1510.46 254.894L1480.38 326.846ZM1091.09 185.621L1071.23 261.037L1071.23 261.037L1091.09 185.621ZM-21.2176 407.997L-21.2176 485.985H2.55604L22.287 472.723L-21.2176 407.997ZM-21.7782 407.997L-65.2886 343.275L-277.57 485.985H-21.7782L-21.7782 407.997ZM1091.33 185.444L1111.19 110.028V110.028L1091.33 185.444ZM1480.7 326.697L1450.62 398.65L1450.62 398.65L1480.7 326.697ZM1600.09 375.811V453.798L1628.91 303.341L1600.09 375.811ZM1600.09 362.332H1678.07V308.853L1628.19 289.583L1600.09 362.332ZM1600.09 362.607L1571.99 435.357L1678.07 476.333L1678.07 362.607H1600.09ZM1497.93 322.276L1469.03 394.713L1469.03 394.714L1497.93 322.276ZM1066.37 173.813L1084.98 98.0788L1084.98 98.0786L1066.37 173.813ZM-52.2489 407.999L-52.2489 485.986H-26.7942L-6.24094 470.969L-52.2489 407.999ZM-52.7958 407.999L-98.8096 345.032L-291.696 485.986H-52.7958L-52.7958 407.999ZM1066.6 173.635L1085.21 97.9002V97.9002L1066.6 173.635ZM1498.24 322.124L1469.34 394.561L1469.34 394.562L1498.24 322.124ZM1600.09 348.823L1633.17 278.201L1522.1 226.165V348.823L1600.09 348.823ZM1600.09 349.095L1572.66 422.1L1678.07 461.703V349.095H1600.09ZM1520.06 318.675L1492.21 391.522L1492.21 391.522L1520.06 318.675ZM1037.9 161.205L1055.21 85.1612L1055.21 85.1611L1037.9 161.205ZM-80.5554 407.999L-80.5554 485.986H-53.1348L-31.7479 468.825L-80.5554 407.999ZM-81.0922 407.999L-129.906 347.176L-302.864 485.986H-81.0922L-81.0922 407.999ZM1038.12 161.021L1020.81 237.065L1020.81 237.065L1038.12 161.021ZM1520.37 318.52L1548.22 245.675L1548.22 245.674L1520.37 318.52ZM1600.09 348.825L1572.66 421.83L1633.18 278.203L1600.09 348.825ZM1600.09 335.554L1573.3 408.797L1678.07 447.12V335.554H1600.09ZM1547.75 316.328L1574.69 243.142L1547.75 316.328ZM1004.92 147.809L988.976 224.149V224.149L1004.92 147.809ZM-98.5782 401.363H-176.566L-176.566 573.843L-47.0661 459.917L-98.5782 401.363ZM-98.5782 400.898L-150.067 342.323L-176.566 365.616L-176.566 400.898H-98.5782ZM1005.12 147.622L1021.06 71.2818L1021.06 71.2818L1005.12 147.622ZM1548.05 316.171L1521.11 389.356L1521.11 389.356L1548.05 316.171ZM1600.09 335.287L1573.3 408.529L1678.07 446.856V335.287H1600.09ZM1600.09 321.724H1678.07V266.728L1626.27 248.263L1600.09 321.724ZM1600.09 321.991L1573.9 395.45L1678.07 432.588V321.991H1600.09ZM1582.35 315.668L1608.55 242.211H1608.55L1582.35 315.668ZM966.689 133.7L952.166 210.323L952.166 210.324L966.689 133.7ZM-98.5782 378.731H-176.566L-176.566 558.764L-45.2348 435.622L-98.5782 378.731ZM-98.5782 378.245L-151.892 321.327L-176.566 344.438V378.245H-98.5782ZM966.876 133.509L952.352 210.132L952.353 210.133L966.876 133.509ZM1582.65 315.506L1556.45 388.962L1556.46 388.965L1582.65 315.506ZM1600.09 308.138H1678.07V252.68L1625.69 234.473L1600.09 308.138ZM1600.09 308.402L1574.48 382.067L1678.07 418.073V308.402H1600.09ZM922.537 118.998L909.494 195.887L909.495 195.888L922.537 118.998ZM-98.5782 354.446H-176.566L-176.566 542.348L-43.5108 409.669L-98.5782 354.446ZM-98.5782 353.939L-153.609 298.679L-176.566 321.541L-176.566 353.939H-98.5782ZM922.707 118.804L935.75 41.9148V41.9148L922.707 118.804ZM1600.09 294.529H1678.07V238.634L1625.14 220.676L1600.09 294.529ZM1600.09 294.792L1575.03 368.645L1678.07 403.606V294.792H1600.09ZM871.917 103.885L883.417 26.7497L883.417 26.7497L871.917 103.885ZM-98.5782 328.217H-176.566L-176.566 523.619L-42.0224 381.916L-98.5782 328.217ZM-98.5782 327.683L-155.088 273.937L-176.566 296.518L-176.566 327.683H-98.5782ZM872.063 103.688L860.563 180.823L860.563 180.823L872.063 103.688ZM1600.09 280.904H1678.07V224.59L1624.62 206.875L1600.09 280.904ZM1600.09 281.163L1575.55 355.191L1678.07 389.17V281.163H1600.09ZM734.604 79.7046L741.927 2.06156L741.926 2.06153L734.604 79.7046ZM-98.5782 299.677H-176.566L-176.566 500.924L-40.9556 352.229L-98.5782 299.677ZM-98.5782 299.126L-156.144 246.512L-176.566 268.855V299.126H-98.5782ZM734.699 79.5028L727.376 157.146L727.376 157.146L734.699 79.5028ZM1600.09 267.258H1678.07V210.544L1624.12 193.066L1600.09 267.258ZM1600.09 267.515L1576.05 341.706L1678.07 374.762V267.515H1600.09ZM705.543 69.113L698.691 146.799L698.691 146.799L705.543 69.113ZM-98.5782 268.692H-176.566L-176.566 472.24L-40.5565 320.803L-98.5782 268.692ZM-98.5782 268.138L-156.532 215.951L-176.566 238.199V268.138H-98.5782ZM705.638 68.9096L698.786 146.596L705.638 68.9096ZM1600.09 253.849L1576.52 328.192L1678.07 360.379V253.849H1600.09ZM678.853 58.7155L685.328 -19.0029L685.328 -19.0029L678.853 58.7155ZM310.96 60.6239L320.18 138.065L320.18 138.065L310.96 60.6239ZM10.9177 149.636L49.4217 217.456L49.4229 217.455L10.9177 149.636ZM-98.5782 235.529H-176.566L-176.566 435.844L-41.1206 288.262L-98.5782 235.529ZM-98.5782 234.98L-155.952 182.156L-176.566 204.545V234.98H-98.5782ZM10.544 149.511L49.0482 217.33L49.0484 217.33L10.544 149.511ZM310.834 60.4251L301.614 -17.0156L301.613 -17.0154L310.834 60.4251ZM678.938 58.5136L672.463 136.232L672.464 136.232L678.938 58.5136ZM1600.09 253.595L1576.53 327.939L1678.07 360.116V253.595H1600.09ZM1600.09 240.164L1576.98 314.65L1678.07 346.014V240.164H1600.09ZM601.601 44.7869L596.939 122.635L596.939 122.635L601.601 44.7869ZM260.217 52.8335L250.003 -24.4824L250.003 -24.4824L260.217 52.8335ZM-11.2159 134.852L-49.7195 67.0322L-49.7238 67.0347L-11.2159 134.852ZM-98.5782 200.978H-176.566L-176.566 391.595L-42.9555 255.642L-98.5782 200.978ZM-98.5782 200.455L-154.104 145.692L-176.566 168.467V200.455H-98.5782ZM-11.5862 134.726L26.919 202.545L26.9191 202.545L-11.5862 134.726ZM260.085 52.6363L249.871 -24.6797L249.87 -24.6796L260.085 52.6363ZM601.663 44.5835L606.325 -33.2647L606.324 -33.2647L601.663 44.5835ZM1600.09 239.913L1576.98 314.4L1678.07 345.755V239.913H1600.09ZM1600.09 226.464L1577.41 301.083L1678.07 331.67V226.464H1600.09ZM887.701 67.3553L899.045 -9.80292L899.045 -9.80293L887.701 67.3553ZM314.496 34.3288L309.303 -43.4857L309.302 -43.4857L314.496 34.3288ZM-95.4391 163.508L-43.9076 222.044L-43.9024 222.04L-95.4391 163.508ZM-98.5782 166.313H-176.566L-176.566 341.902L-46.29 224.175L-98.5782 166.313ZM-98.5782 165.841L-150.815 107.933L-176.566 131.162L-176.566 165.841H-98.5782ZM-95.857 163.414L-44.3314 221.957L-44.3256 221.951L-44.3199 221.946L-95.857 163.414ZM314.425 34.1254L319.618 111.94L319.619 111.94L314.425 34.1254ZM887.847 67.1612L899.191 -9.99703V-9.99704L887.847 67.1612ZM1600.09 226.214L1577.42 300.835L1678.07 331.412V226.214H1600.09ZM1600.09 212.503H1678.07V154.349L1622.34 137.757L1600.09 212.503ZM1600.09 212.751L1577.83 287.495L1678.07 317.347V212.751H1600.09ZM824.493 50.1751L834.503 -27.1675L834.503 -27.1675L824.493 50.1751ZM265.605 25.5291L259.655 -52.2312L259.654 -52.2311L265.605 25.5291ZM-98.5782 132.944H-176.566L-176.566 291.525L-50.9668 194.711L-98.5782 132.944ZM-98.5782 132.528L-146.085 70.6795L-176.566 94.0925V132.528H-98.5782ZM265.527 25.3273L271.477 103.088L271.478 103.088L265.527 25.3273ZM824.626 49.9779L834.636 -27.3647L834.635 -27.3647L824.626 49.9779ZM1600.09 199.026L1578.23 273.888L1678.07 303.042V199.026H1600.09ZM758.279 33.6456L749.558 111.144L749.558 111.144L758.279 33.6456ZM216.123 16.9282L209.391 -60.7683L209.389 -60.7682L216.123 16.9282ZM-98.5782 101.95H-176.566L-176.566 244.094L-56.6787 167.726L-98.5782 101.95ZM-98.5782 101.585L-140.384 35.749L-176.566 58.7245L-176.566 101.585H-98.5782ZM216.035 16.7263L209.302 -60.9702L209.302 -60.9702L216.035 16.7263ZM758.398 33.4468L767.119 -44.0517L767.119 -44.0517L758.398 33.4468ZM1600.09 198.779L1578.24 273.643L1678.07 302.785V198.779H1600.09ZM1600.09 185.042H1678.07V126.251L1621.56 110.067L1600.09 185.042ZM1600.09 185.289L1578.61 260.261L1678.07 288.752V185.289H1600.09ZM690.234 17.9111L682.744 95.5382L682.744 95.5383L690.234 17.9111ZM166.563 8.49028L159.041 -69.1338L159.04 -69.1337L166.563 8.49028ZM-98.5782 73.8382H-176.566L-176.566 201.919L-62.7776 143.123L-98.5782 73.8382ZM-98.5782 73.5183L-134.301 4.19325L-176.566 25.9721V73.5183H-98.5782ZM166.465 8.28842L173.986 85.9125L173.988 85.9124L166.465 8.28842ZM690.333 17.7077L682.843 95.3348L682.843 95.3348L690.333 17.7077ZM260.299 407.997L228.588 336.747L260.299 485.985V407.997ZM1217.52 250.93L1244.82 177.878L1244.82 177.877L1217.52 250.93ZM1441.85 374.04L1484.5 308.745L1484.5 308.745L1441.85 374.04ZM1494.37 407.997L1494.37 485.985L1763.11 485.985L1536.12 342.124L1494.37 407.997ZM1493.8 407.997L1452.05 473.867L1471.16 485.985H1493.8L1493.8 407.997ZM1441.46 374.155L1484.11 308.862L1484.11 308.86L1441.46 374.155ZM1217.21 251.087L1244.52 178.034L1244.52 178.034L1217.21 251.087ZM260.958 407.997V485.985H277.526L292.663 479.249L260.958 407.997ZM1510.95 330.011H1510.36L1510.36 485.986H1510.95L1510.95 330.011ZM1549.43 340.506C1526.52 327.243 1503.95 313.609 1480.75 299.586L1400.07 433.076C1423.09 446.985 1446.9 461.375 1471.28 475.491L1549.43 340.506ZM1480.75 299.585C1405.32 254.001 1323.5 204.28 1226.73 169.518L1174 316.31C1253.92 345.018 1322.96 386.474 1400.08 433.076L1480.75 299.585ZM1226.73 169.519C995.614 86.4962 700.34 95.3411 181.367 337.316L247.279 478.681C748.089 245.174 997.733 252.991 1174 316.31L1226.73 169.519ZM214.323 330.011H213.677L213.677 485.986H214.323L214.323 330.011ZM246.638 478.678C747.894 244.919 997.799 252.748 1174.3 316.15L1227.03 169.359C995.684 86.2546 700.148 95.0833 180.716 337.319L246.638 478.678ZM1174.3 316.15C1254.26 344.875 1323.33 386.342 1400.45 432.954L1481.13 299.465C1405.68 253.866 1323.84 204.137 1227.03 169.359L1174.3 316.15ZM1400.45 432.954C1423.53 446.904 1447.42 461.34 1471.88 475.498L1550.01 340.499C1527.03 327.204 1504.4 313.531 1481.13 299.465L1400.45 432.954ZM1531.03 330.011H1530.42L1530.42 485.986H1531.03L1531.03 330.011ZM1566.97 339.107C1537.78 323.617 1509.03 307.462 1479.36 290.785L1402.94 426.752C1432.33 443.277 1462.72 460.365 1493.87 476.89L1566.97 339.107ZM1479.37 290.787C1398.2 245.155 1310.56 195.67 1209.22 160.772L1158.43 308.249C1244.39 337.848 1320.17 380.224 1402.93 426.75L1479.37 290.787ZM1209.22 160.772C963.121 76.0332 655.282 83.1757 135.34 337.967L203.976 478.03C702.119 233.92 965.262 241.733 1158.44 308.249L1209.22 160.772ZM169.658 330.011H169.026L169.026 485.986H169.658L169.658 330.011ZM203.349 478.027C701.911 233.667 965.315 241.491 1158.72 308.088L1209.5 160.611C963.177 75.7914 655.076 82.9195 134.703 337.97L203.349 478.027ZM1158.72 308.088C1244.73 337.703 1320.52 380.087 1403.3 426.623L1479.73 290.659C1398.54 245.018 1310.9 195.524 1209.5 160.61L1158.72 308.088ZM1403.3 426.624C1432.78 443.193 1463.25 460.33 1494.49 476.898L1567.57 339.102C1538.3 323.577 1509.48 307.382 1479.73 290.659L1403.3 426.624ZM1562.16 479.507L1562.16 479.505L1499.91 336.492L1499.9 336.493L1562.16 479.507ZM1554.69 330.011H1554.06L1554.06 485.986H1554.69L1554.69 330.011ZM1588.25 337.905C1552.32 320.379 1516.87 301.765 1480.16 282.474L1407.61 420.55C1443.99 439.666 1481.49 459.373 1519.87 478.092L1588.25 337.905ZM1480.16 282.474C1392.77 236.559 1298.6 186.896 1191.65 151.707L1142.9 299.868C1235.63 330.381 1318.71 373.842 1407.61 420.551L1480.16 282.474ZM1191.65 151.706C929.987 65.6114 608.701 71.2709 91.2443 338.717L162.86 477.28C654.838 223.002 932.019 230.481 1142.9 299.868L1191.65 151.706ZM127.052 330.011H126.43L126.43 485.986H127.052L127.052 330.011ZM162.243 477.277C654.617 222.747 932.058 230.236 1143.18 299.701L1191.93 151.54C930.03 65.3664 608.481 71.0132 90.6173 338.72L162.243 477.277ZM1143.18 299.702C1235.96 330.229 1319.05 373.699 1407.97 420.418L1480.52 282.34C1393.11 236.415 1298.92 186.743 1191.93 151.54L1143.18 299.702ZM1407.97 420.418C1444.44 439.576 1482.03 459.336 1520.51 478.098L1588.87 337.899C1552.85 320.338 1517.33 301.681 1480.52 282.34L1407.97 420.418ZM1581.95 330.011L1581.29 330.011L1581.29 485.986L1581.95 485.986L1581.95 330.011ZM1613.27 336.872C1570.3 317.545 1527.7 296.549 1483.35 274.674L1414.35 414.559C1458.29 436.231 1503.37 458.47 1549.3 479.125L1613.27 336.872ZM1483.35 274.673C1389.08 228.182 1287.4 177.873 1173.6 142.217L1126.96 291.059C1227.46 322.546 1318.65 367.358 1414.36 414.56L1483.35 274.673ZM1173.6 142.217C895.901 55.2145 560.339 59.7576 49.12 339.589L124.012 476.408C606.057 212.546 897.689 219.226 1126.96 291.059L1173.6 142.217ZM86.5661 330.011H85.9648L85.9648 485.986H86.5661L86.5661 330.011ZM123.416 476.405C605.823 212.295 897.718 218.982 1127.24 290.891L1173.87 142.05C895.934 54.9712 560.105 59.503 48.5132 339.592L123.416 476.405ZM1127.24 290.891C1227.77 322.389 1318.98 367.211 1414.7 414.422L1483.69 274.534C1389.41 228.034 1287.71 177.716 1173.87 142.05L1127.24 290.891ZM1414.7 414.421C1458.74 436.141 1503.92 458.434 1549.97 479.13L1613.92 336.867C1570.84 317.504 1528.15 296.462 1483.69 274.535L1414.7 414.421ZM1581.94 485.986H1581.95L1581.95 330.011H1581.94L1581.94 485.986ZM1522.1 402.669V402.957L1678.07 402.957V402.669L1522.1 402.669ZM1630.45 331.124C1584.09 311.523 1537.69 289.962 1489.22 267.427L1423.46 408.864C1471.49 431.196 1520.4 453.937 1569.72 474.789L1630.45 331.124ZM1489.22 267.427C1387.21 220.007 1276.75 168.512 1154.55 132.202L1110.12 281.717C1219.67 314.267 1320.08 360.803 1423.46 408.865L1489.22 267.427ZM1154.55 132.202C860.519 44.8389 509.985 48.7874 9.03904 340.611L87.5513 475.386C555.64 202.703 861.924 207.971 1110.12 281.717L1154.55 132.202ZM48.2952 330.011H47.7074L47.7074 485.986H48.2952L48.2952 330.011ZM86.9693 475.382C555.392 202.451 861.943 207.727 1110.38 281.546L1154.81 132.031C860.542 44.5956 509.736 48.5327 8.44557 340.615L86.9693 475.382ZM1110.38 281.546C1219.98 314.11 1320.4 360.655 1423.8 408.724L1489.56 267.286C1387.54 219.857 1277.06 168.355 1154.81 132.031L1110.38 281.546ZM1423.8 408.723C1471.72 431.002 1520.51 453.689 1569.71 474.499L1630.47 330.843C1584.21 311.28 1537.92 289.768 1489.56 267.286L1423.8 408.723ZM1678.07 402.671V402.669L1522.1 402.669V402.671L1678.07 402.671ZM1522.1 389.258V389.54L1678.07 389.54V389.258L1522.1 389.258ZM1629.65 317.374C1586.76 299.8 1543.35 280.708 1498.11 260.802L1435.29 403.57C1480.2 423.327 1525.45 443.243 1570.52 461.707L1629.65 317.374ZM1498.11 260.803C1387.3 212.048 1266.41 158.728 1133.89 121.559L1091.77 271.739C1212.04 305.473 1323.15 354.228 1435.29 403.57L1498.11 260.803ZM1133.89 121.559C823.435 34.4809 457.469 38.5164 -28.9342 341.821L53.5962 474.173C503.498 193.629 824.308 196.72 1091.77 271.739L1133.89 121.559ZM12.331 330.009H11.7569L11.7569 485.985H12.331L12.331 330.009ZM53.0276 474.169C503.237 193.381 824.317 196.476 1092.02 271.565L1134.15 121.385C823.447 34.2376 457.206 38.2648 -29.5139 341.824L53.0276 474.169ZM1092.03 271.565C1212.34 305.31 1323.46 354.074 1435.63 403.424L1498.44 260.656C1387.61 211.895 1266.71 158.565 1134.15 121.385L1092.03 271.565ZM1435.63 403.424C1480.42 423.131 1525.56 442.997 1570.51 461.421L1629.66 317.097C1586.87 299.559 1543.57 280.511 1498.44 260.657L1435.63 403.424ZM1678.07 389.259V389.258L1522.1 389.258V389.259L1678.07 389.259ZM1522.1 375.811V376.09L1678.07 376.09V375.811L1522.1 375.811ZM1628.9 303.62C1590.44 288.33 1551.22 271.936 1510.46 254.895L1450.29 398.797C1490.82 415.744 1531.32 432.676 1571.27 448.56L1628.9 303.62ZM1510.46 254.894C1389.55 204.344 1256.12 148.435 1110.95 110.205L1071.23 261.037C1204.33 296.089 1328.08 347.702 1450.3 398.799L1510.46 254.894ZM1110.95 110.205C784.216 24.156 402.693 29.1041 -64.7222 343.271L22.287 472.723C449.627 185.492 784.39 185.496 1071.23 261.037L1110.95 110.205ZM-21.2176 330.009H-21.7782L-21.7782 485.985H-21.2176L-21.2176 330.009ZM21.7322 472.719C449.346 185.248 784.381 185.253 1071.47 260.86L1111.19 110.028C784.211 23.9144 402.41 28.857 -65.2886 343.275L21.7322 472.719ZM1071.47 260.86C1204.62 295.925 1328.39 347.546 1450.62 398.65L1510.79 254.745C1389.86 204.187 1256.41 148.271 1111.19 110.028L1071.47 260.86ZM1450.62 398.65C1491.03 415.544 1531.43 432.435 1571.28 448.28L1628.91 303.341C1590.55 288.09 1551.44 271.741 1510.79 254.744L1450.62 398.65ZM1600.09 297.823H1600.09V453.798H1600.09V297.823ZM1522.1 362.332V362.607L1678.07 362.607V362.332L1522.1 362.332ZM1628.19 289.858C1595.32 277.164 1561.68 263.743 1526.82 249.839L1469.03 394.714C1503.73 408.555 1538.19 422.301 1571.99 435.357L1628.19 289.858ZM1526.82 249.839C1394.33 196.987 1245.68 137.567 1084.98 98.0788L1047.76 249.548C1196.33 286.057 1335.25 341.345 1469.03 394.713L1526.82 249.839ZM1084.98 98.0786C742.399 13.9007 345.639 20.708 -98.2568 345.027L-6.24094 470.969C394.114 178.462 741.675 174.338 1047.76 249.548L1084.98 98.0786ZM-52.2489 330.011H-52.7958L-52.7958 485.986H-52.2489L-52.2489 330.011ZM-6.78207 470.965C393.82 178.22 741.649 174.094 1047.99 249.37L1085.21 97.9002C742.377 13.6573 345.341 20.4626 -98.8096 345.032L-6.78207 470.965ZM1047.99 249.37C1196.61 285.889 1335.54 341.185 1469.34 394.561L1527.13 249.687C1394.62 196.827 1245.95 137.399 1085.21 97.9002L1047.99 249.37ZM1469.34 394.562C1503.94 408.36 1538.29 422.064 1571.99 435.081L1628.19 289.583C1595.42 276.927 1561.88 263.547 1527.13 249.687L1469.34 394.562ZM1522.1 348.823V349.095L1678.07 349.095V348.823L1522.1 348.823ZM1627.51 276.089C1601.66 266.376 1575.18 256.256 1547.91 245.829L1492.21 391.522C1519.41 401.921 1546.31 412.202 1572.66 422.1L1627.51 276.089ZM1547.91 245.829C1402.23 190.141 1234.95 126.063 1055.21 85.1612L1020.6 237.248C1187.93 275.327 1345.24 335.337 1492.21 391.522L1547.91 245.829ZM1055.21 85.1611C697.558 3.77492 286.438 13.5324 -129.363 347.172L-31.7479 468.825C337.228 172.759 695.698 163.314 1020.6 237.248L1055.21 85.1611ZM-80.5554 330.011H-81.0922L-81.0922 485.986H-80.5554L-80.5554 330.011ZM-32.2787 468.821C336.914 172.52 695.655 163.072 1020.81 237.065L1055.42 84.9779C697.52 3.53328 286.12 13.2897 -129.906 347.176L-32.2787 468.821ZM1020.81 237.065C1188.19 275.154 1345.53 335.173 1492.52 391.366L1548.22 245.674C1402.52 189.976 1235.21 125.889 1055.42 84.9778L1020.81 237.065ZM1492.52 391.365C1519.61 401.725 1546.41 411.967 1572.66 421.83L1627.52 275.819C1601.76 266.141 1575.39 256.061 1548.22 245.675L1492.52 391.365ZM1633.18 278.203L1633.17 278.201L1567 419.445L1567 419.446L1633.18 278.203ZM1522.1 335.286V335.554L1678.07 335.554V335.286L1522.1 335.286ZM1626.88 262.312C1609.82 256.075 1592.45 249.678 1574.69 243.142L1520.8 389.513C1538.54 396.042 1556.07 402.494 1573.3 408.797L1626.88 262.312ZM1574.69 243.142C1414.27 184.083 1223.95 113.881 1020.86 71.468L988.976 224.149C1179.14 263.864 1359.07 329.97 1520.8 389.513L1574.69 243.142ZM1020.86 71.4681C651.944 -5.57574 231.168 7.40158 -150.09 342.809L-47.0661 459.917C284.388 168.325 648.286 153.001 988.976 224.149L1020.86 71.4681ZM-20.5906 401.363V400.898H-176.566V401.363H-20.5906ZM-47.0899 459.472C284.413 168.077 648.386 152.792 989.176 223.963L1021.06 71.2818C652.075 -5.7775 231.245 7.14337 -150.067 342.323L-47.0899 459.472ZM989.176 223.963C1179.4 263.69 1359.35 329.805 1521.11 389.356L1574.99 242.985C1414.55 183.918 1224.21 113.707 1021.06 71.2818L989.176 223.963ZM1521.11 389.356C1538.73 395.846 1556.16 402.26 1573.3 408.529L1626.88 262.046C1609.92 255.842 1592.64 249.483 1574.99 242.985L1521.11 389.356ZM1678.07 335.287V335.286L1522.1 335.286V335.287L1678.07 335.287ZM1522.1 321.724V321.991L1678.07 321.991V321.724L1522.1 321.724ZM1626.27 248.531C1620.41 246.44 1614.5 244.332 1608.55 242.211L1556.16 389.124C1562.11 391.248 1568.03 393.358 1573.9 395.45L1626.27 248.531ZM1608.55 242.211C1432.17 179.311 1213.04 101.017 981.212 57.0766L952.166 210.324C1170.3 251.669 1378.44 325.744 1556.16 389.124L1608.55 242.211ZM981.212 57.0766C609.424 -13.3926 189.364 1.83461 -151.922 321.841L-45.2348 435.622C243.82 164.59 603.04 144.15 952.166 210.323L981.212 57.0766ZM-20.5906 378.731V378.245H-176.566V378.731H-20.5906ZM-45.2644 435.164C243.865 164.344 603.146 143.944 952.352 210.132L981.399 56.8856C609.555 -13.5936 189.469 1.5837 -151.892 321.327L-45.2644 435.164ZM952.353 210.133C1170.55 251.488 1378.71 325.574 1556.45 388.962L1608.85 242.05C1432.44 179.14 1213.29 100.837 981.399 56.8856L952.353 210.133ZM1556.46 388.965C1562.3 391.048 1568.13 393.126 1573.9 395.184L1626.27 248.263C1620.5 246.207 1614.7 244.138 1608.84 242.048L1556.46 388.965ZM1522.1 308.138V308.402L1678.07 308.402V308.138L1522.1 308.138ZM1625.69 234.737C1436.49 168.974 1191.46 85.5123 935.579 42.1088L909.495 195.888C1151.04 236.86 1384.87 316.162 1574.48 382.067L1625.69 234.737ZM935.58 42.109C564.33 -20.8689 149.271 -2.83813 -153.646 299.222L-43.5108 409.669C205.326 161.536 555.264 135.797 909.494 195.887L935.58 42.109ZM-20.5906 354.446V353.939H-176.566V354.446H-20.5906ZM-43.5475 409.2C205.396 161.29 555.382 135.595 909.664 195.693L935.75 41.9148C564.464 -21.0679 149.412 -3.08273 -153.609 298.679L-43.5475 409.2ZM909.664 195.693C1151.16 236.658 1384.9 315.91 1574.48 381.803L1625.69 234.473C1436.5 168.717 1191.57 85.31 935.75 41.9148L909.664 195.693ZM1522.1 294.529V294.792L1678.07 294.792V294.529L1522.1 294.529ZM1625.14 220.939C1424.79 152.962 1157.56 67.6223 883.417 26.7497L860.417 181.02C1119.81 219.694 1375.84 301.063 1575.03 368.645L1625.14 220.939ZM883.417 26.7497C516.822 -27.9049 111.922 -6.74821 -155.134 274.519L-42.0224 381.916C169.714 158.912 505.331 128.081 860.417 181.02L883.417 26.7497ZM-20.5906 328.217V327.683H-176.566V328.217H-20.5906ZM-42.0683 381.43C169.81 158.658 505.467 127.882 860.563 180.823L883.563 26.5525C516.964 -28.1033 112.105 -6.99398 -155.088 273.937L-42.0683 381.43ZM860.563 180.823C1119.91 219.488 1375.86 300.811 1575.03 368.383L1625.14 220.676C1424.79 152.707 1157.65 67.4153 883.563 26.5525L860.563 180.823ZM1522.1 280.904V281.163L1678.07 281.163V280.904L1522.1 280.904ZM1624.62 207.135C1392.18 130.099 1063.41 32.3822 741.927 2.06156L727.281 157.348C1030.47 185.943 1345.49 278.941 1575.55 355.191L1624.62 207.135ZM741.926 2.06153C410.453 -29.2001 61.0993 8.85752 -156.201 247.125L-40.9556 352.229C123.978 171.381 406.229 127.069 727.281 157.348L741.926 2.06153ZM-20.5906 299.677V299.126H-176.566V299.677H-20.5906ZM-41.0122 351.74C124.075 171.114 406.351 126.869 727.376 157.146L742.021 1.85969C410.575 -29.4004 61.3014 8.59949 -156.144 246.512L-41.0122 351.74ZM727.376 157.146C1030.53 185.737 1345.48 278.687 1575.55 354.932L1624.62 206.875C1392.16 129.84 1063.46 32.1753 742.021 1.85967L727.376 157.146ZM1522.1 267.258V267.515L1678.07 267.515V267.258L1522.1 267.258ZM1624.12 193.325C1386.52 116.343 1042.58 20.5483 712.394 -8.57306L698.691 146.799C1011.44 174.383 1342.3 265.971 1576.05 341.706L1624.12 193.325ZM712.395 -8.57303C385.304 -37.4235 41.2187 -3.67491 -156.6 216.581L-40.5565 320.803C103.165 160.78 376.131 118.348 698.691 146.799L712.395 -8.57303ZM-20.5906 268.692V268.138H-176.566V268.692H-20.5906ZM-40.6246 320.325C103.287 160.51 376.284 118.15 698.786 146.596L712.49 -8.77645C385.436 -37.6232 41.4638 -3.92384 -156.532 215.951L-40.6246 320.325ZM698.786 146.596C1011.49 174.177 1342.28 265.719 1576.05 341.449L1624.12 193.066C1386.5 116.088 1042.62 20.3415 712.49 -8.77646L698.786 146.596ZM1522.1 253.593V253.849H1678.07V253.593H1522.1ZM1623.65 179.506C1381.6 102.788 1023.49 9.17052 685.328 -19.0029L672.378 136.434C994.043 163.233 1339.64 253.112 1576.52 328.192L1623.65 179.506ZM685.328 -19.0029C553.242 -30.007 422.436 -31.1879 301.739 -16.8168L320.18 138.065C427.445 125.293 547.212 126.006 672.379 136.434L685.328 -19.0029ZM301.739 -16.8168C181.404 -2.48907 67.7479 27.6893 -27.5875 81.8174L49.4229 217.455C120.896 176.875 212.575 150.877 320.18 138.065L301.739 -16.8168ZM-27.5862 81.8166C-75.4273 108.978 -118.876 142.307 -156.036 182.797L-41.1206 288.262C-16.1978 261.105 14.0077 237.562 49.4217 217.456L-27.5862 81.8166ZM-20.5906 235.529V234.98H-176.566V235.529H-20.5906ZM-41.2049 287.804C-16.3339 260.791 13.775 237.356 49.0482 217.33L-27.9601 81.691C-75.6023 108.739 -118.889 141.901 -155.952 182.156L-41.2049 287.804ZM49.0484 217.33C120.59 176.712 212.357 150.69 320.056 137.866L301.613 -17.0154C181.187 -2.67534 67.4428 27.5261 -27.9604 81.6911L49.0484 217.33ZM320.054 137.866C427.391 125.086 547.231 125.798 672.463 136.232L685.413 -19.2048C553.257 -30.2152 422.38 -31.3943 301.614 -17.0156L320.054 137.866ZM672.464 136.232C994.086 163.026 1339.61 252.864 1576.53 327.939L1623.64 179.25C1381.56 102.539 1023.53 8.96376 685.413 -19.2048L672.464 136.232ZM1678.07 253.595V253.593H1522.1V253.595H1678.07ZM1522.1 239.911V240.164H1678.07V239.911H1522.1ZM1623.2 165.679C1364.67 85.4737 966.954 -11.46 606.264 -33.0613L596.939 122.635C940.298 143.198 1324.74 236.395 1576.98 314.65L1623.2 165.679ZM606.264 -33.0613C482.236 -40.4892 360.854 -39.1268 250.003 -24.4824L270.431 130.149C368.564 117.185 479.477 115.6 596.939 122.635L606.264 -33.0613ZM250.003 -24.4824C139.607 -9.89768 36.0899 18.3155 -49.7195 67.0322L27.2877 202.672C89.731 167.221 171.872 143.17 270.432 130.149L250.003 -24.4824ZM-49.7238 67.0347C-88.2301 88.8992 -123.52 115.095 -154.201 146.314L-42.9555 255.642C-23.6615 236.01 -0.293388 218.333 27.2921 202.67L-49.7238 67.0347ZM-20.5906 200.978V200.455H-176.566V200.978H-20.5906ZM-43.0525 255.218C-23.8111 235.708 -0.533897 218.132 26.919 202.545L-50.0914 66.9074C-88.3972 88.6561 -123.527 114.689 -154.104 145.692L-43.0525 255.218ZM26.9191 202.545C89.4219 167.058 171.643 142.986 270.299 129.952L249.87 -24.6796C139.38 -10.0827 35.7807 18.1521 -50.0915 66.9075L26.9191 202.545ZM270.298 129.952C368.497 116.98 479.475 115.394 597.001 122.432L606.324 -33.2647C482.232 -40.6958 360.785 -39.3317 249.871 -24.6797L270.298 129.952ZM597 122.432C940.325 142.994 1324.7 236.148 1576.98 314.4L1623.19 165.426C1364.62 85.2241 966.975 -11.6651 606.325 -33.2647L597 122.432ZM1678.07 239.913V239.911H1522.1V239.913H1678.07ZM1522.1 226.213V226.464H1678.07V226.213H1522.1ZM1622.76 151.845C1433.93 94.4648 1168.96 29.8809 899.045 -9.80292L876.357 144.513C1137.71 182.938 1395.08 245.678 1577.41 301.083L1622.76 151.845ZM899.045 -9.80293C697.707 -39.4044 490.712 -55.5941 309.303 -43.4857L319.69 112.143C485.8 101.056 680.73 115.752 876.357 144.513L899.045 -9.80293ZM309.302 -43.4857C131.176 -31.5956 -37.3041 8.41116 -146.976 104.975L-43.9024 222.04C25.771 160.694 150.365 123.446 319.691 112.143L309.302 -43.4857ZM-146.971 104.971C-148.391 106.221 -149.716 107.411 -150.867 108.451L-46.29 224.175C-45.3616 223.336 -44.6004 222.654 -43.9076 222.044L-146.971 104.971ZM-20.5906 166.313V165.841H-176.566V166.313H-20.5906ZM-46.3416 223.75C-45.6196 223.099 -44.9552 222.506 -44.3314 221.957L-147.383 104.872C-148.586 105.932 -149.736 106.96 -150.815 107.933L-46.3416 223.75ZM-44.3199 221.946C25.4316 160.531 150.148 123.25 319.618 111.94L309.232 -43.6891C130.958 -31.7913 -37.6442 8.2482 -147.394 104.882L-44.3199 221.946ZM319.619 111.94C485.807 100.848 680.812 115.548 876.503 144.319L899.191 -9.99704C697.788 -39.608 490.719 -55.8022 309.231 -43.6891L319.619 111.94ZM876.503 144.319C1137.77 182.732 1395.07 245.439 1577.42 300.835L1622.76 151.594C1433.91 94.2249 1169.02 29.6741 899.191 -9.99703L876.503 144.319ZM1678.07 226.214V226.213H1522.1V226.214H1678.07ZM1522.1 212.503V212.751H1678.07V212.503H1522.1ZM1622.34 138.007C1420.23 77.8203 1127.16 10.7094 834.503 -27.1675L814.484 127.518C1098.32 164.253 1383.2 229.536 1577.83 287.495L1622.34 138.007ZM834.503 -27.1675C635.527 -52.919 433.776 -65.555 259.655 -52.2312L271.556 103.289C430.883 91.0977 620.953 102.471 814.484 127.518L834.503 -27.1675ZM259.654 -52.2311C101.865 -40.1538 -46.1383 -5.94504 -146.19 71.1763L-50.9668 194.711C11.9653 146.202 121.834 114.749 271.557 103.289L259.654 -52.2311ZM-20.5906 132.944V132.528H-176.566V132.944H-20.5906ZM-51.0716 194.376C12.0005 145.929 121.886 114.534 271.477 103.088L259.577 -52.4331C101.894 -40.3673 -45.9764 -6.2155 -146.085 70.6795L-51.0716 194.376ZM271.478 103.088C430.883 90.8896 621.022 102.266 814.617 127.321L834.635 -27.3647C635.594 -53.1241 433.775 -65.763 259.577 -52.4331L271.478 103.088ZM814.616 127.321C1098.37 164.045 1383.17 229.299 1577.84 287.249L1622.34 137.757C1420.2 77.5822 1127.21 10.5012 834.636 -27.3647L814.616 127.321ZM1522.1 198.778V199.026H1678.07V198.778H1522.1ZM1621.95 124.165C1406.18 61.1636 1082.65 -8.33228 767 -43.8529L749.558 111.144C1056.15 145.645 1370.89 213.348 1578.23 273.888L1621.95 124.165ZM767.001 -43.8529C571.378 -65.8668 375.773 -75.1858 209.391 -60.7683L222.856 94.6247C374.871 81.4521 559.122 89.7138 749.558 111.144L767.001 -43.8529ZM209.389 -60.7682C74.6704 -49.0923 -50.4898 -21.1486 -140.478 36.1738L-56.6787 167.726C1.31422 130.785 96.138 105.607 222.857 94.6246L209.389 -60.7682ZM-20.5906 101.95V101.585H-176.566V101.95H-20.5906ZM-56.7729 167.421C1.33066 130.526 96.1615 105.394 222.768 94.4228L209.302 -60.9702C74.6808 -49.3046 -50.3703 -21.4086 -140.384 35.749L-56.7729 167.421ZM222.767 94.4228C374.858 81.244 559.18 89.5089 749.678 110.945L767.119 -44.0517C571.435 -66.0718 375.759 -75.3939 209.302 -60.9702L222.767 94.4228ZM749.677 110.945C1056.19 145.437 1370.86 213.111 1578.24 273.643L1621.94 123.916C1406.14 60.9256 1082.69 -8.54045 767.119 -44.0517L749.677 110.945ZM1678.07 198.779V198.778H1522.1V198.779H1678.07ZM1522.1 185.042V185.289H1678.07V185.042H1522.1ZM1621.56 110.316C1392.03 44.5664 1036.02 -27.0748 697.724 -59.716L682.744 95.5383C1011.78 127.285 1358.41 197.185 1578.61 260.261L1621.56 110.316ZM697.725 -59.716C506.293 -78.1871 317.465 -84.4849 159.041 -69.1338L174.085 86.1144C318.499 72.1207 496.25 77.5435 682.744 95.5382L697.725 -59.716ZM159.04 -69.1337C47.4709 -58.3205 -55.482 -36.214 -134.379 4.55334L-62.7776 143.123C-9.64745 115.67 70.4206 96.1614 174.086 86.1142L159.04 -69.1337ZM-20.5906 73.8382V73.5183H-176.566V73.8382H-20.5906ZM-62.8555 142.843C-9.64584 115.425 70.4168 95.9484 173.986 85.9125L158.943 -69.3356C47.4612 -58.533 -55.4021 -36.4628 -134.301 4.19325L-62.8555 142.843ZM173.988 85.9124C318.47 71.9096 496.287 77.3339 682.843 95.3348L697.823 -59.9194C506.33 -78.3968 317.433 -84.6961 158.941 -69.3355L173.988 85.9124ZM682.843 95.3348C1011.8 127.076 1358.36 196.944 1578.62 260.016L1621.56 110.067C1391.97 44.3253 1036.05 -27.2845 697.823 -59.9194L682.843 95.3348ZM292.009 479.247C792.743 256.391 1029.74 264.01 1190.22 323.983L1244.82 177.877C1027.78 96.7632 743.935 107.388 228.588 336.747L292.009 479.247ZM1190.21 323.982C1264.67 351.807 1327.4 392.437 1399.21 439.336L1484.5 308.745C1414.46 263 1337.9 212.664 1244.82 177.878L1190.21 323.982ZM1399.21 439.336C1416.49 450.625 1434.37 462.299 1452.62 473.87L1536.12 342.124C1518.91 331.217 1501.92 320.123 1484.5 308.745L1399.21 439.336ZM1494.37 330.009H1493.8L1493.8 485.985H1494.37L1494.37 330.009ZM1535.55 342.127C1518.4 331.256 1501.47 320.201 1484.11 308.862L1398.81 439.449C1416.04 450.699 1433.85 462.334 1452.05 473.867L1535.55 342.127ZM1484.11 308.86C1414.08 263.128 1337.55 212.801 1244.52 178.034L1189.91 324.14C1264.31 351.944 1327.02 392.561 1398.82 439.451L1484.11 308.86ZM1244.52 178.034C1027.7 97.0032 744.116 107.644 229.253 336.745L292.663 479.249C792.929 256.644 1029.66 264.251 1189.91 324.14L1244.52 178.034ZM260.958 330.009H260.299L260.299 485.985H260.958L260.958 330.009Z" fill="#1F1533" mask="url(#path-1-inside-1_3_69)"/>
</svg>
